<svg width="797" height="646" viewBox="0 0 797 646" fill="none" xmlns="http://www.w3.org/2000/svg">
<g clip-path="url(#clip0_29_41)">
<rect width="797" height="646" fill="black"/>
<path d="M84 207V88.8H43V67H151.8V88.8H110.8V207H84ZM154.57 207V67H181.17V124.4H181.97C185.437 118.267 189.97 113.6 195.57 110.4C201.17 107.067 207.77 105.4 215.37 105.4C223.37 105.4 230.17 107.2 235.77 110.8C241.37 114.267 245.637 119.4 248.57 126.2C251.504 133 252.97 141.4 252.97 151.4V207H226.17V153.8C226.17 145.533 224.504 139.2 221.17 134.8C217.97 130.4 212.77 128.2 205.57 128.2C200.904 128.2 196.77 129.333 193.17 131.6C189.57 133.733 186.704 136.867 184.57 141C182.57 145 181.57 149.933 181.57 155.8V207H154.57ZM310.823 209.4C300.69 209.4 291.69 207.267 283.823 203C276.09 198.733 270.023 192.733 265.623 185C261.223 177.267 259.023 168.4 259.023 158.4C259.023 148 261.157 138.867 265.423 131C269.823 123 275.89 116.733 283.623 112.2C291.49 107.667 300.557 105.4 310.823 105.4C320.823 105.4 329.557 107.533 337.023 111.8C344.49 116.067 350.357 121.933 354.623 129.4C358.89 136.733 361.023 145.067 361.023 154.4C361.023 155.733 360.957 157.267 360.823 159C360.823 160.6 360.757 162.267 360.623 164H278.223V147.4H333.623C333.223 141.133 330.89 136.133 326.623 132.4C322.49 128.667 317.29 126.8 311.023 126.8C306.357 126.8 302.09 127.867 298.223 130C294.357 132 291.29 135.133 289.023 139.4C286.757 143.533 285.623 148.8 285.623 155.2V161C285.623 166.467 286.69 171.2 288.823 175.2C290.957 179.067 293.89 182.067 297.623 184.2C301.49 186.333 305.823 187.4 310.623 187.4C315.557 187.4 319.69 186.333 323.023 184.2C326.357 181.933 328.89 179.067 330.623 175.6H358.023C356.157 181.867 353.023 187.6 348.623 192.8C344.223 197.867 338.823 201.933 332.423 205C326.023 207.933 318.823 209.4 310.823 209.4Z" fill="#E1EEE6"/>
<path d="M129.089 390.4C115.089 390.4 102.956 387.4 92.6895 381.4C82.5561 375.267 74.7561 366.8 69.2895 356C63.8228 345.067 61.0895 332.467 61.0895 318.2C61.0895 303.933 63.8228 291.333 69.2895 280.4C74.8895 269.467 82.7561 260.933 92.8895 254.8C103.023 248.667 115.089 245.6 129.089 245.6C146.156 245.6 160.089 249.8 170.889 258.2C181.689 266.6 188.489 278.467 191.289 293.8H161.489C159.756 286.333 156.156 280.533 150.689 276.4C145.223 272.133 137.956 270 128.889 270C120.489 270 113.223 272 107.089 276C101.089 279.867 96.4895 285.4 93.2895 292.6C90.2228 299.8 88.6895 308.333 88.6895 318.2C88.6895 328.067 90.2228 336.6 93.2895 343.8C96.4895 350.867 101.089 356.333 107.089 360.2C113.223 364.067 120.489 366 128.889 366C137.956 366 145.223 364.067 150.689 360.2C156.289 356.333 159.956 350.867 161.689 343.8H191.289C188.623 358.333 181.823 369.733 170.889 378C160.089 386.267 146.156 390.4 129.089 390.4ZM248.23 390.4C238.63 390.4 229.963 388.2 222.23 383.8C214.497 379.4 208.363 373.267 203.83 365.4C199.43 357.533 197.23 348.533 197.23 338.4C197.23 328.133 199.497 319.133 204.03 311.4C208.563 303.533 214.697 297.4 222.43 293C230.163 288.6 238.763 286.4 248.23 286.4C257.83 286.4 266.497 288.6 274.23 293C281.963 297.4 288.03 303.533 292.43 311.4C296.963 319.133 299.23 328.133 299.23 338.4C299.23 348.667 296.963 357.733 292.43 365.6C287.897 373.333 281.763 379.4 274.03 383.8C266.43 388.2 257.83 390.4 248.23 390.4ZM248.03 367.6C252.43 367.6 256.363 366.533 259.83 364.4C263.43 362.267 266.297 359.067 268.43 354.8C270.563 350.4 271.63 344.933 271.63 338.4C271.63 331.867 270.563 326.467 268.43 322.2C266.297 317.8 263.43 314.533 259.83 312.4C256.363 310.267 252.563 309.2 248.43 309.2C244.163 309.2 240.23 310.267 236.63 312.4C233.03 314.533 230.163 317.8 228.03 322.2C225.897 326.467 224.83 331.867 224.83 338.4C224.83 344.933 225.897 350.4 228.03 354.8C230.163 359.067 232.963 362.267 236.43 364.4C240.03 366.533 243.897 367.6 248.03 367.6ZM307.144 388V248H334.144V388H307.144ZM347.043 388V248H374.043V388H347.043ZM433.764 390.4C423.631 390.4 414.631 388.267 406.764 384C399.031 379.733 392.964 373.733 388.564 366C384.164 358.267 381.964 349.4 381.964 339.4C381.964 329 384.098 319.867 388.364 312C392.764 304 398.831 297.733 406.564 293.2C414.431 288.667 423.498 286.4 433.764 286.4C443.764 286.4 452.498 288.533 459.964 292.8C467.431 297.067 473.298 302.933 477.564 310.4C481.831 317.733 483.964 326.067 483.964 335.4C483.964 336.733 483.898 338.267 483.764 340C483.764 341.6 483.698 343.267 483.564 345H401.164V328.4H456.564C456.164 322.133 453.831 317.133 449.564 313.4C445.431 309.667 440.231 307.8 433.964 307.8C429.298 307.8 425.031 308.867 421.164 311C417.298 313 414.231 316.133 411.964 320.4C409.698 324.533 408.564 329.8 408.564 336.2V342C408.564 347.467 409.631 352.2 411.764 356.2C413.898 360.067 416.831 363.067 420.564 365.2C424.431 367.333 428.764 368.4 433.564 368.4C438.498 368.4 442.631 367.333 445.964 365.2C449.298 362.933 451.831 360.067 453.564 356.6H480.964C479.098 362.867 475.964 368.6 471.564 373.8C467.164 378.867 461.764 382.933 455.364 386C448.964 388.933 441.764 390.4 433.764 390.4ZM533.963 430.4C524.496 430.4 516.163 429.267 508.963 427C501.896 424.733 496.363 421.333 492.363 416.8C488.496 412.4 486.563 407.067 486.563 400.8C486.563 396.133 487.763 391.867 490.163 388C492.563 384 496.096 380.4 500.763 377.2C505.43 373.867 511.163 371 517.963 368.6L527.763 382C521.896 384 517.63 386.4 514.963 389.2C512.296 392 510.963 395.2 510.963 398.8C510.963 401.467 511.896 403.733 513.763 405.6C515.763 407.467 518.496 408.867 521.963 409.8C525.43 410.867 529.43 411.4 533.963 411.4C538.496 411.4 542.296 410.867 545.363 409.8C548.43 408.733 550.763 407.2 552.363 405.2C553.963 403.333 554.763 401.133 554.763 398.6C554.763 395 553.496 392.2 550.963 390.2C548.43 388.333 543.496 387.133 536.163 386.6C529.363 386.067 523.363 385.333 518.163 384.4C512.963 383.333 508.363 382.133 504.363 380.8C500.496 379.333 497.163 377.733 494.363 376C491.563 374.267 489.296 372.533 487.563 370.8V366.2L508.963 344.2L524.763 350.2L503.163 374.2L510.363 362.2C511.696 362.733 513.096 363.267 514.563 363.8C516.03 364.333 517.83 364.867 519.963 365.4C522.23 365.933 525.03 366.467 528.363 367C531.83 367.4 536.163 367.867 541.363 368.4C550.163 369.067 557.363 370.6 562.963 373C568.563 375.4 572.696 378.667 575.363 382.8C578.03 386.933 579.363 392 579.363 398C579.363 403.2 577.696 408.267 574.363 413.2C571.163 418.267 566.23 422.4 559.563 425.6C552.896 428.8 544.363 430.4 533.963 430.4ZM534.163 358.6C525.763 358.6 518.496 357 512.363 353.8C506.363 350.6 501.696 346.267 498.363 340.8C495.163 335.333 493.563 329.267 493.563 322.6C493.563 315.933 495.163 309.867 498.363 304.4C501.696 298.933 506.363 294.6 512.363 291.4C518.496 288.067 525.763 286.4 534.163 286.4C542.563 286.4 549.763 288.067 555.763 291.4C561.896 294.6 566.563 298.933 569.763 304.4C572.963 309.867 574.563 315.933 574.563 322.6C574.563 329.267 572.963 335.333 569.763 340.8C566.563 346.267 561.896 350.6 555.763 353.8C549.763 357 542.563 358.6 534.163 358.6ZM533.963 339C539.296 339 543.563 337.667 546.763 335C550.096 332.2 551.763 328.067 551.763 322.6C551.763 317.133 550.096 313.067 546.763 310.4C543.563 307.6 539.363 306.2 534.163 306.2C528.83 306.2 524.496 307.6 521.163 310.4C517.963 313.067 516.363 317.133 516.363 322.6C516.363 328.067 517.963 332.2 521.163 335C524.496 337.667 528.763 339 533.963 339ZM550.363 307L545.963 288.8H587.563V303.4L550.363 307ZM643.639 390.4C633.506 390.4 624.506 388.267 616.639 384C608.906 379.733 602.839 373.733 598.439 366C594.039 358.267 591.839 349.4 591.839 339.4C591.839 329 593.973 319.867 598.239 312C602.639 304 608.706 297.733 616.439 293.2C624.306 288.667 633.373 286.4 643.639 286.4C653.639 286.4 662.373 288.533 669.839 292.8C677.306 297.067 683.173 302.933 687.439 310.4C691.706 317.733 693.839 326.067 693.839 335.4C693.839 336.733 693.773 338.267 693.639 340C693.639 341.6 693.573 343.267 693.439 345H611.039V328.4H666.439C666.039 322.133 663.706 317.133 659.439 313.4C655.306 309.667 650.106 307.8 643.839 307.8C639.173 307.8 634.906 308.867 631.039 311C627.173 313 624.106 316.133 621.839 320.4C619.573 324.533 618.439 329.8 618.439 336.2V342C618.439 347.467 619.506 352.2 621.639 356.2C623.773 360.067 626.706 363.067 630.439 365.2C634.306 367.333 638.639 368.4 643.439 368.4C648.373 368.4 652.506 367.333 655.839 365.2C659.173 362.933 661.706 360.067 663.439 356.6H690.839C688.973 362.867 685.839 368.6 681.439 373.8C677.039 378.867 671.639 382.933 665.239 386C658.839 388.933 651.639 390.4 643.639 390.4Z" fill="#E1EEE6"/>
<path d="M329.089 575V456.8H288.089V435H396.889V456.8H355.889V575H329.089ZM435.546 577.4C425.412 577.4 416.412 575.267 408.546 571C400.812 566.733 394.746 560.733 390.346 553C385.946 545.267 383.746 536.4 383.746 526.4C383.746 516 385.879 506.867 390.146 499C394.546 491 400.612 484.733 408.346 480.2C416.212 475.667 425.279 473.4 435.546 473.4C445.546 473.4 454.279 475.533 461.746 479.8C469.212 484.067 475.079 489.933 479.346 497.4C483.612 504.733 485.746 513.067 485.746 522.4C485.746 523.733 485.679 525.267 485.546 527C485.546 528.6 485.479 530.267 485.346 532H402.946V515.4H458.346C457.946 509.133 455.612 504.133 451.346 500.4C447.212 496.667 442.012 494.8 435.746 494.8C431.079 494.8 426.812 495.867 422.946 498C419.079 500 416.012 503.133 413.746 507.4C411.479 511.533 410.346 516.8 410.346 523.2V529C410.346 534.467 411.412 539.2 413.546 543.2C415.679 547.067 418.612 550.067 422.346 552.2C426.212 554.333 430.546 555.4 435.346 555.4C440.279 555.4 444.412 554.333 447.746 552.2C451.079 549.933 453.612 547.067 455.346 543.6H482.746C480.879 549.867 477.746 555.6 473.346 560.8C468.946 565.867 463.546 569.933 457.146 573C450.746 575.933 443.546 577.4 435.546 577.4ZM540.883 577.4C530.35 577.4 521.15 575.2 513.283 570.8C505.55 566.267 499.483 560.133 495.083 552.4C490.816 544.533 488.683 535.533 488.683 525.4C488.683 515.267 490.883 506.333 495.283 498.6C499.683 490.733 505.816 484.6 513.683 480.2C521.55 475.667 530.616 473.4 540.883 473.4C553.683 473.4 564.416 476.733 573.083 483.4C581.883 490.067 587.483 499.267 589.883 511H561.283C560.216 506.2 557.75 502.467 553.883 499.8C550.15 497.133 545.75 495.8 540.683 495.8C536.016 495.8 531.816 497 528.083 499.4C524.483 501.667 521.616 505 519.483 509.4C517.35 513.8 516.283 519.133 516.283 525.4C516.283 529.933 516.883 534 518.083 537.6C519.283 541.2 520.95 544.267 523.083 546.8C525.216 549.333 527.75 551.267 530.683 552.6C533.75 553.8 537.083 554.4 540.683 554.4C544.15 554.4 547.283 553.867 550.083 552.8C552.883 551.6 555.283 549.933 557.283 547.8C559.283 545.533 560.616 542.867 561.283 539.8H589.883C587.483 551.267 581.883 560.4 573.083 567.2C564.416 574 553.683 577.4 540.883 577.4ZM597.816 575V435H624.416V492.4H625.216C628.683 486.267 633.216 481.6 638.816 478.4C644.416 475.067 651.016 473.4 658.616 473.4C666.616 473.4 673.416 475.2 679.016 478.8C684.616 482.267 688.883 487.4 691.816 494.2C694.749 501 696.216 509.4 696.216 519.4V575H669.416V521.8C669.416 513.533 667.749 507.2 664.416 502.8C661.216 498.4 656.016 496.2 648.816 496.2C644.149 496.2 640.016 497.333 636.416 499.6C632.816 501.733 629.949 504.867 627.816 509C625.816 513 624.816 517.933 624.816 523.8V575H597.816Z" fill="#E1EEE6"/>
</g>
<defs>
<clipPath id="clip0_29_41">
<rect width="797" height="646" fill="white"/>
</clipPath>
</defs>
</svg>
