<svg width="265" height="107" viewBox="0 0 265 107" fill="none" xmlns="http://www.w3.org/2000/svg">
<rect width="265" height="107" fill="black"/>
<path d="M12.5 42V12.45H2.25V7H29.45V12.45H19.2V42H12.5ZM30.1426 42V7H36.7926V21.35H36.9926C37.8592 19.8167 38.9926 18.65 40.3926 17.85C41.7926 17.0167 43.4426 16.6 45.3426 16.6C47.3426 16.6 49.0426 17.05 50.4426 17.95C51.8426 18.8167 52.9092 20.1 53.6426 21.8C54.3759 23.5 54.7426 25.6 54.7426 28.1V42H48.0426V28.7C48.0426 26.6333 47.6259 25.05 46.7926 23.95C45.9926 22.85 44.6926 22.3 42.8926 22.3C41.7259 22.3 40.6926 22.5833 39.7926 23.15C38.8926 23.6833 38.1759 24.4667 37.6426 25.5C37.1426 26.5 36.8926 27.7333 36.8926 29.2V42H30.1426ZM69.2059 42.6C66.6725 42.6 64.4225 42.0667 62.4559 41C60.5225 39.9333 59.0059 38.4333 57.9059 36.5C56.8059 34.5667 56.2559 32.35 56.2559 29.85C56.2559 27.25 56.7892 24.9667 57.8559 23C58.9559 21 60.4725 19.4333 62.4059 18.3C64.3725 17.1667 66.6392 16.6 69.2059 16.6C71.7059 16.6 73.8892 17.1333 75.7559 18.2C77.6225 19.2667 79.0892 20.7333 80.1559 22.6C81.2225 24.4333 81.7559 26.5167 81.7559 28.85C81.7559 29.1833 81.7392 29.5667 81.7059 30C81.7059 30.4 81.6892 30.8167 81.6559 31.25H61.0559V27.1H74.9059C74.8059 25.5333 74.2225 24.2833 73.1559 23.35C72.1225 22.4167 70.8225 21.95 69.2559 21.95C68.0892 21.95 67.0225 22.2167 66.0559 22.75C65.0892 23.25 64.3225 24.0333 63.7559 25.1C63.1892 26.1333 62.9059 27.45 62.9059 29.05V30.5C62.9059 31.8667 63.1725 33.05 63.7059 34.05C64.2392 35.0167 64.9725 35.7667 65.9059 36.3C66.8725 36.8333 67.9559 37.1 69.1559 37.1C70.3892 37.1 71.4225 36.8333 72.2559 36.3C73.0892 35.7333 73.7225 35.0167 74.1559 34.15H81.0059C80.5392 35.7167 79.7559 37.15 78.6559 38.45C77.5559 39.7167 76.2059 40.7333 74.6059 41.5C73.0059 42.2333 71.2059 42.6 69.2059 42.6Z" fill="#E1EEE6"/>
<path d="M21.75 87.7719C18.25 87.7719 15.2167 87.0219 12.65 85.5219C10.1167 83.9886 8.16667 81.8719 6.8 79.1719C5.43333 76.4386 4.75 73.2886 4.75 69.7219C4.75 66.1553 5.43333 63.0053 6.8 60.2719C8.2 57.5386 10.1667 55.4053 12.7 53.8719C15.2333 52.3386 18.25 51.5719 21.75 51.5719C26.0167 51.5719 29.5 52.6219 32.2 54.7219C34.9 56.8219 36.6 59.7886 37.3 63.6219H29.85C29.4167 61.7553 28.5167 60.3053 27.15 59.2719C25.7833 58.2053 23.9667 57.6719 21.7 57.6719C19.6 57.6719 17.7833 58.1719 16.25 59.1719C14.75 60.1386 13.6 61.5219 12.8 63.3219C12.0333 65.1219 11.65 67.2553 11.65 69.7219C11.65 72.1886 12.0333 74.3219 12.8 76.1219C13.6 77.8886 14.75 79.2553 16.25 80.2219C17.7833 81.1886 19.6 81.6719 21.7 81.6719C23.9667 81.6719 25.7833 81.1886 27.15 80.2219C28.55 79.2553 29.4667 77.8886 29.9 76.1219H37.3C36.6333 79.7553 34.9333 82.6053 32.2 84.6719C29.5 86.7386 26.0167 87.7719 21.75 87.7719ZM51.5352 87.7719C49.1352 87.7719 46.9685 87.2219 45.0352 86.1219C43.1018 85.0219 41.5685 83.4886 40.4352 81.5219C39.3352 79.5553 38.7852 77.3053 38.7852 74.7719C38.7852 72.2053 39.3518 69.9553 40.4852 68.0219C41.6185 66.0553 43.1518 64.5219 45.0852 63.4219C47.0185 62.3219 49.1685 61.7719 51.5352 61.7719C53.9352 61.7719 56.1018 62.3219 58.0352 63.4219C59.9685 64.5219 61.4852 66.0553 62.5852 68.0219C63.7185 69.9553 64.2852 72.2053 64.2852 74.7719C64.2852 77.3386 63.7185 79.6053 62.5852 81.5719C61.4518 83.5053 59.9185 85.0219 57.9852 86.1219C56.0852 87.2219 53.9352 87.7719 51.5352 87.7719ZM51.4852 82.0719C52.5852 82.0719 53.5685 81.8053 54.4352 81.2719C55.3352 80.7386 56.0518 79.9386 56.5852 78.8719C57.1185 77.7719 57.3852 76.4053 57.3852 74.7719C57.3852 73.1386 57.1185 71.7886 56.5852 70.7219C56.0518 69.6219 55.3352 68.8053 54.4352 68.2719C53.5685 67.7386 52.6185 67.4719 51.5852 67.4719C50.5185 67.4719 49.5352 67.7386 48.6352 68.2719C47.7352 68.8053 47.0185 69.6219 46.4852 70.7219C45.9518 71.7886 45.6852 73.1386 45.6852 74.7719C45.6852 76.4053 45.9518 77.7719 46.4852 78.8719C47.0185 79.9386 47.7185 80.7386 48.5852 81.2719C49.4852 81.8053 50.4518 82.0719 51.4852 82.0719ZM66.2637 87.1719V52.1719H73.0137V87.1719H66.2637ZM76.2383 87.1719V52.1719H82.9883V87.1719H76.2383ZM97.9188 87.7719C95.3854 87.7719 93.1354 87.2386 91.1688 86.1719C89.2354 85.1053 87.7188 83.6053 86.6188 81.6719C85.5188 79.7386 84.9688 77.5219 84.9688 75.0219C84.9688 72.4219 85.5021 70.1386 86.5688 68.1719C87.6688 66.1719 89.1854 64.6053 91.1188 63.4719C93.0854 62.3386 95.3521 61.7719 97.9188 61.7719C100.419 61.7719 102.602 62.3053 104.469 63.3719C106.335 64.4386 107.802 65.9053 108.869 67.7719C109.935 69.6053 110.469 71.6886 110.469 74.0219C110.469 74.3553 110.452 74.7386 110.419 75.1719C110.419 75.5719 110.402 75.9886 110.369 76.4219H89.7688V72.2719H103.619C103.519 70.7053 102.935 69.4553 101.869 68.5219C100.835 67.5886 99.5354 67.1219 97.9688 67.1219C96.8021 67.1219 95.7354 67.3886 94.7688 67.9219C93.8021 68.4219 93.0354 69.2053 92.4688 70.2719C91.9021 71.3053 91.6188 72.6219 91.6188 74.2219V75.6719C91.6188 77.0386 91.8854 78.2219 92.4188 79.2219C92.9521 80.1886 93.6854 80.9386 94.6188 81.4719C95.5854 82.0053 96.6688 82.2719 97.8688 82.2719C99.1021 82.2719 100.135 82.0053 100.969 81.4719C101.802 80.9053 102.435 80.1886 102.869 79.3219H109.719C109.252 80.8886 108.469 82.3219 107.369 83.6219C106.269 84.8886 104.919 85.9053 103.319 86.6719C101.719 87.4053 99.9188 87.7719 97.9188 87.7719ZM122.968 97.7719C120.602 97.7719 118.518 97.4886 116.718 96.9219C114.952 96.3553 113.568 95.5053 112.568 94.3719C111.602 93.2719 111.118 91.9386 111.118 90.3719C111.118 89.2053 111.418 88.1386 112.018 87.1719C112.618 86.1719 113.502 85.2719 114.668 84.4719C115.835 83.6386 117.268 82.9219 118.968 82.3219L121.418 85.6719C119.952 86.1719 118.885 86.7719 118.218 87.4719C117.552 88.1719 117.218 88.9719 117.218 89.8719C117.218 90.5386 117.452 91.1053 117.918 91.5719C118.418 92.0386 119.102 92.3886 119.968 92.6219C120.835 92.8886 121.835 93.0219 122.968 93.0219C124.102 93.0219 125.052 92.8886 125.818 92.6219C126.585 92.3553 127.168 91.9719 127.568 91.4719C127.968 91.0053 128.168 90.4553 128.168 89.8219C128.168 88.9219 127.852 88.2219 127.218 87.7219C126.585 87.2553 125.352 86.9553 123.518 86.8219C121.818 86.6886 120.318 86.5053 119.018 86.2719C117.718 86.0053 116.568 85.7053 115.568 85.3719C114.602 85.0053 113.768 84.6053 113.068 84.1719C112.368 83.7386 111.802 83.3053 111.368 82.8719V81.7219L116.718 76.2219L120.668 77.7219L115.268 83.7219L117.068 80.7219C117.402 80.8553 117.752 80.9886 118.118 81.1219C118.485 81.2553 118.935 81.3886 119.468 81.5219C120.035 81.6553 120.735 81.7886 121.568 81.9219C122.435 82.0219 123.518 82.1386 124.818 82.2719C127.018 82.4386 128.818 82.8219 130.218 83.4219C131.618 84.0219 132.652 84.8386 133.318 85.8719C133.985 86.9053 134.318 88.1719 134.318 89.6719C134.318 90.9719 133.902 92.2386 133.068 93.4719C132.268 94.7386 131.035 95.7719 129.368 96.5719C127.702 97.3719 125.568 97.7719 122.968 97.7719ZM123.018 79.8219C120.918 79.8219 119.102 79.4219 117.568 78.6219C116.068 77.8219 114.902 76.7386 114.068 75.3719C113.268 74.0053 112.868 72.4886 112.868 70.8219C112.868 69.1553 113.268 67.6386 114.068 66.2719C114.902 64.9053 116.068 63.8219 117.568 63.0219C119.102 62.1886 120.918 61.7719 123.018 61.7719C125.118 61.7719 126.918 62.1886 128.418 63.0219C129.952 63.8219 131.118 64.9053 131.918 66.2719C132.718 67.6386 133.118 69.1553 133.118 70.8219C133.118 72.4886 132.718 74.0053 131.918 75.3719C131.118 76.7386 129.952 77.8219 128.418 78.6219C126.918 79.4219 125.118 79.8219 123.018 79.8219ZM122.968 74.9219C124.302 74.9219 125.368 74.5886 126.168 73.9219C127.002 73.2219 127.418 72.1886 127.418 70.8219C127.418 69.4553 127.002 68.4386 126.168 67.7719C125.368 67.0719 124.318 66.7219 123.018 66.7219C121.685 66.7219 120.602 67.0719 119.768 67.7719C118.968 68.4386 118.568 69.4553 118.568 70.8219C118.568 72.1886 118.968 73.2219 119.768 73.9219C120.602 74.5886 121.668 74.9219 122.968 74.9219ZM127.068 66.9219L125.968 62.3719H136.368V66.0219L127.068 66.9219ZM150.388 87.7719C147.854 87.7719 145.604 87.2386 143.638 86.1719C141.704 85.1053 140.188 83.6053 139.088 81.6719C137.988 79.7386 137.438 77.5219 137.438 75.0219C137.438 72.4219 137.971 70.1386 139.038 68.1719C140.138 66.1719 141.654 64.6053 143.588 63.4719C145.554 62.3386 147.821 61.7719 150.388 61.7719C152.888 61.7719 155.071 62.3053 156.938 63.3719C158.804 64.4386 160.271 65.9053 161.338 67.7719C162.404 69.6053 162.938 71.6886 162.938 74.0219C162.938 74.3553 162.921 74.7386 162.888 75.1719C162.888 75.5719 162.871 75.9886 162.838 76.4219H142.238V72.2719H156.088C155.988 70.7053 155.404 69.4553 154.338 68.5219C153.304 67.5886 152.004 67.1219 150.438 67.1219C149.271 67.1219 148.204 67.3886 147.238 67.9219C146.271 68.4219 145.504 69.2053 144.938 70.2719C144.371 71.3053 144.088 72.6219 144.088 74.2219V75.6719C144.088 77.0386 144.354 78.2219 144.888 79.2219C145.421 80.1886 146.154 80.9386 147.088 81.4719C148.054 82.0053 149.138 82.2719 150.338 82.2719C151.571 82.2719 152.604 82.0053 153.438 81.4719C154.271 80.9053 154.904 80.1886 155.338 79.3219H162.188C161.721 80.8886 160.938 82.3219 159.838 83.6219C158.738 84.8886 157.388 85.9053 155.788 86.6719C154.188 87.4053 152.388 87.7719 150.388 87.7719Z" fill="#E1EEE6"/>
<path d="M168.5 88.1539V58.6039H158.25V53.1539H185.45V58.6039H175.2V88.1539H168.5ZM195.114 88.7539C192.581 88.7539 190.331 88.2206 188.364 87.1539C186.431 86.0873 184.914 84.5873 183.814 82.6539C182.714 80.7206 182.164 78.5039 182.164 76.0039C182.164 73.4039 182.697 71.1206 183.764 69.1539C184.864 67.1539 186.381 65.5873 188.314 64.4539C190.281 63.3206 192.547 62.7539 195.114 62.7539C197.614 62.7539 199.797 63.2873 201.664 64.3539C203.531 65.4206 204.997 66.8873 206.064 68.7539C207.131 70.5873 207.664 72.6706 207.664 75.0039C207.664 75.3373 207.647 75.7206 207.614 76.1539C207.614 76.5539 207.597 76.9706 207.564 77.4039H186.964V73.2539H200.814C200.714 71.6873 200.131 70.4373 199.064 69.5039C198.031 68.5706 196.731 68.1039 195.164 68.1039C193.997 68.1039 192.931 68.3706 191.964 68.9039C190.997 69.4039 190.231 70.1873 189.664 71.2539C189.097 72.2873 188.814 73.6039 188.814 75.2039V76.6539C188.814 78.0206 189.081 79.2039 189.614 80.2039C190.147 81.1706 190.881 81.9206 191.814 82.4539C192.781 82.9873 193.864 83.2539 195.064 83.2539C196.297 83.2539 197.331 82.9873 198.164 82.4539C198.997 81.8873 199.631 81.1706 200.064 80.3039H206.914C206.447 81.8706 205.664 83.3039 204.564 84.6039C203.464 85.8706 202.114 86.8873 200.514 87.6539C198.914 88.3873 197.114 88.7539 195.114 88.7539ZM221.448 88.7539C218.815 88.7539 216.515 88.2039 214.548 87.1039C212.615 85.9706 211.098 84.4373 209.998 82.5039C208.932 80.5373 208.398 78.2873 208.398 75.7539C208.398 73.2206 208.948 70.9873 210.048 69.0539C211.148 67.0873 212.682 65.5539 214.648 64.4539C216.615 63.3206 218.882 62.7539 221.448 62.7539C224.648 62.7539 227.332 63.5873 229.498 65.2539C231.698 66.9206 233.098 69.2206 233.698 72.1539H226.548C226.282 70.9539 225.665 70.0206 224.698 69.3539C223.765 68.6873 222.665 68.3539 221.398 68.3539C220.232 68.3539 219.182 68.6539 218.248 69.2539C217.348 69.8206 216.632 70.6539 216.098 71.7539C215.565 72.8539 215.298 74.1873 215.298 75.7539C215.298 76.8873 215.448 77.9039 215.748 78.8039C216.048 79.7039 216.465 80.4706 216.998 81.1039C217.532 81.7373 218.165 82.2206 218.898 82.5539C219.665 82.8539 220.498 83.0039 221.398 83.0039C222.265 83.0039 223.048 82.8706 223.748 82.6039C224.448 82.3039 225.048 81.8873 225.548 81.3539C226.048 80.7873 226.382 80.1206 226.548 79.3539H233.698C233.098 82.2206 231.698 84.5039 229.498 86.2039C227.332 87.9039 224.648 88.7539 221.448 88.7539ZM235.682 88.1539V53.1539H242.332V67.5039H242.532C243.398 65.9706 244.532 64.8039 245.932 64.0039C247.332 63.1706 248.982 62.7539 250.882 62.7539C252.882 62.7539 254.582 63.2039 255.982 64.1039C257.382 64.9706 258.448 66.2539 259.182 67.9539C259.915 69.6539 260.282 71.7539 260.282 74.2539V88.1539H253.582V74.8539C253.582 72.7873 253.165 71.2039 252.332 70.1039C251.532 69.0039 250.232 68.4539 248.432 68.4539C247.265 68.4539 246.232 68.7373 245.332 69.3039C244.432 69.8373 243.715 70.6206 243.182 71.6539C242.682 72.6539 242.432 73.8873 242.432 75.3539V88.1539H235.682Z" fill="#E1EEE6"/>
<path d="M234.792 101.404C234.592 101.404 234.428 101.34 234.3 101.212C234.172 101.076 234.108 100.912 234.108 100.72C234.108 100.528 234.172 100.368 234.3 100.24C234.428 100.104 234.592 100.036 234.792 100.036C234.992 100.036 235.156 100.104 235.284 100.24C235.412 100.368 235.476 100.528 235.476 100.72C235.476 100.912 235.412 101.076 235.284 101.212C235.156 101.34 234.992 101.404 234.792 101.404ZM239.221 101.488C238.685 101.488 238.221 101.364 237.829 101.116C237.445 100.868 237.157 100.524 236.965 100.084C236.781 99.6359 236.721 99.1199 236.785 98.5359C236.833 98.0239 236.957 97.5559 237.157 97.1319C237.357 96.6999 237.617 96.3319 237.937 96.0279C238.265 95.7159 238.633 95.4759 239.041 95.3079C239.449 95.1319 239.885 95.0439 240.349 95.0439C241.069 95.0439 241.637 95.2359 242.053 95.6199C242.477 96.0039 242.697 96.5159 242.713 97.1559H241.681C241.665 96.7559 241.517 96.4479 241.237 96.2319C240.957 96.0159 240.609 95.9079 240.193 95.9079C239.793 95.9079 239.421 96.0119 239.077 96.2199C238.741 96.4279 238.461 96.7239 238.237 97.1079C238.013 97.4919 237.873 97.9519 237.817 98.4879C237.777 98.8319 237.785 99.1399 237.841 99.4119C237.905 99.6839 238.009 99.9119 238.153 100.096C238.297 100.272 238.469 100.408 238.669 100.504C238.877 100.592 239.109 100.636 239.365 100.636C239.645 100.636 239.909 100.588 240.157 100.492C240.413 100.396 240.637 100.256 240.829 100.072C241.029 99.8799 241.181 99.6479 241.285 99.3759H242.317C242.165 99.7919 241.937 100.16 241.633 100.48C241.329 100.792 240.969 101.04 240.553 101.224C240.145 101.4 239.701 101.488 239.221 101.488ZM245.908 101.488C245.364 101.488 244.892 101.364 244.492 101.116C244.1 100.86 243.812 100.508 243.628 100.06C243.444 99.6119 243.384 99.0959 243.448 98.5119C243.496 97.9999 243.62 97.5319 243.82 97.1079C244.02 96.6839 244.28 96.3199 244.6 96.0159C244.92 95.7119 245.284 95.4759 245.692 95.3079C246.1 95.1319 246.532 95.0439 246.988 95.0439C247.54 95.0439 248.012 95.1679 248.404 95.4159C248.796 95.6639 249.084 96.0119 249.268 96.4599C249.46 96.8999 249.52 97.4199 249.448 98.0199C249.4 98.5319 249.276 98.9999 249.076 99.4239C248.884 99.8399 248.628 100.204 248.308 100.516C247.988 100.82 247.624 101.06 247.216 101.236C246.808 101.404 246.372 101.488 245.908 101.488ZM246.04 100.624C246.448 100.624 246.82 100.52 247.156 100.312C247.5 100.104 247.784 99.8079 248.008 99.4239C248.232 99.0319 248.368 98.5719 248.416 98.0439C248.472 97.5799 248.436 97.1919 248.308 96.8799C248.18 96.5599 247.988 96.3199 247.732 96.1599C247.484 95.9919 247.192 95.9079 246.856 95.9079C246.456 95.9079 246.088 96.0119 245.752 96.2199C245.416 96.4279 245.132 96.7279 244.9 97.1199C244.676 97.5039 244.54 97.9599 244.492 98.4879C244.436 98.9519 244.472 99.3439 244.6 99.6639C244.728 99.9759 244.916 100.216 245.164 100.384C245.42 100.544 245.712 100.624 246.04 100.624ZM250.092 101.344L251.172 95.1879H252.084L251.988 96.1119C252.228 95.7839 252.524 95.5239 252.876 95.3319C253.228 95.1399 253.592 95.0439 253.968 95.0439C254.272 95.0439 254.54 95.0879 254.772 95.1759C255.012 95.2639 255.212 95.3959 255.372 95.5719C255.532 95.7399 255.648 95.9559 255.72 96.2199C255.984 95.8439 256.312 95.5559 256.704 95.3559C257.096 95.1479 257.496 95.0439 257.904 95.0439C258.352 95.0439 258.728 95.1359 259.032 95.3199C259.344 95.5039 259.564 95.7839 259.692 96.1599C259.82 96.5359 259.832 97.0079 259.728 97.5759L259.068 101.344H258.072L258.708 97.6839C258.812 97.0919 258.764 96.6479 258.564 96.3519C258.372 96.0559 258.06 95.9079 257.628 95.9079C257.348 95.9079 257.076 95.9839 256.812 96.1359C256.556 96.2879 256.328 96.5079 256.128 96.7959C255.936 97.0759 255.796 97.4239 255.708 97.8399L255.084 101.344H254.076L254.724 97.6839C254.828 97.0919 254.78 96.6479 254.58 96.3519C254.38 96.0559 254.068 95.9079 253.644 95.9079C253.364 95.9079 253.088 95.9879 252.816 96.1479C252.552 96.3079 252.32 96.5439 252.12 96.8559C251.92 97.1599 251.78 97.5319 251.7 97.9719L251.1 101.344H250.092Z" fill="#00CE93"/>
</svg>
