<svg width="300" height="300" viewBox="0 0 300 300" fill="none" xmlns="http://www.w3.org/2000/svg">
<rect width="300" height="300" fill="black"/>
<path d="M36.5 129V99.45H26.25V94H53.45V99.45H43.2V129H36.5ZM54.1426 129V94H60.7926V108.35H60.9926C61.8592 106.817 62.9926 105.65 64.3926 104.85C65.7926 104.017 67.4426 103.6 69.3426 103.6C71.3426 103.6 73.0426 104.05 74.4426 104.95C75.8426 105.817 76.9092 107.1 77.6426 108.8C78.3759 110.5 78.7426 112.6 78.7426 115.1V129H72.0426V115.7C72.0426 113.633 71.6259 112.05 70.7926 110.95C69.9926 109.85 68.6926 109.3 66.8926 109.3C65.7259 109.3 64.6926 109.583 63.7926 110.15C62.8926 110.683 62.1759 111.467 61.6426 112.5C61.1426 113.5 60.8926 114.733 60.8926 116.2V129H54.1426ZM93.2059 129.6C90.6725 129.6 88.4225 129.067 86.4559 128C84.5225 126.933 83.0059 125.433 81.9059 123.5C80.8059 121.567 80.2559 119.35 80.2559 116.85C80.2559 114.25 80.7892 111.967 81.8559 110C82.9559 108 84.4725 106.433 86.4059 105.3C88.3725 104.167 90.6392 103.6 93.2059 103.6C95.7059 103.6 97.8892 104.133 99.7559 105.2C101.623 106.267 103.089 107.733 104.156 109.6C105.223 111.433 105.756 113.517 105.756 115.85C105.756 116.183 105.739 116.567 105.706 117C105.706 117.4 105.689 117.817 105.656 118.25H85.0559V114.1H98.9059C98.8059 112.533 98.2225 111.283 97.1559 110.35C96.1225 109.417 94.8225 108.95 93.2559 108.95C92.0892 108.95 91.0225 109.217 90.0559 109.75C89.0892 110.25 88.3225 111.033 87.7559 112.1C87.1892 113.133 86.9059 114.45 86.9059 116.05V117.5C86.9059 118.867 87.1725 120.05 87.7059 121.05C88.2392 122.017 88.9725 122.767 89.9059 123.3C90.8725 123.833 91.9559 124.1 93.1559 124.1C94.3892 124.1 95.4225 123.833 96.2559 123.3C97.0892 122.733 97.7225 122.017 98.1559 121.15H105.006C104.539 122.717 103.756 124.15 102.656 125.45C101.556 126.717 100.206 127.733 98.6059 128.5C97.0059 129.233 95.2059 129.6 93.2059 129.6Z" fill="#E1EEE6"/>
<path d="M45.75 175.6C42.25 175.6 39.2167 174.85 36.65 173.35C34.1167 171.817 32.1667 169.7 30.8 167C29.4333 164.267 28.75 161.117 28.75 157.55C28.75 153.983 29.4333 150.833 30.8 148.1C32.2 145.367 34.1667 143.233 36.7 141.7C39.2333 140.167 42.25 139.4 45.75 139.4C50.0167 139.4 53.5 140.45 56.2 142.55C58.9 144.65 60.6 147.617 61.3 151.45H53.85C53.4167 149.583 52.5167 148.133 51.15 147.1C49.7833 146.033 47.9667 145.5 45.7 145.5C43.6 145.5 41.7833 146 40.25 147C38.75 147.967 37.6 149.35 36.8 151.15C36.0333 152.95 35.65 155.083 35.65 157.55C35.65 160.017 36.0333 162.15 36.8 163.95C37.6 165.717 38.75 167.083 40.25 168.05C41.7833 169.017 43.6 169.5 45.7 169.5C47.9667 169.5 49.7833 169.017 51.15 168.05C52.55 167.083 53.4667 165.717 53.9 163.95H61.3C60.6333 167.583 58.9333 170.433 56.2 172.5C53.5 174.567 50.0167 175.6 45.75 175.6ZM75.5352 175.6C73.1352 175.6 70.9685 175.05 69.0352 173.95C67.1018 172.85 65.5685 171.317 64.4352 169.35C63.3352 167.383 62.7852 165.133 62.7852 162.6C62.7852 160.033 63.3518 157.783 64.4852 155.85C65.6185 153.883 67.1518 152.35 69.0852 151.25C71.0185 150.15 73.1685 149.6 75.5352 149.6C77.9352 149.6 80.1018 150.15 82.0352 151.25C83.9685 152.35 85.4852 153.883 86.5852 155.85C87.7185 157.783 88.2852 160.033 88.2852 162.6C88.2852 165.167 87.7185 167.433 86.5852 169.4C85.4518 171.333 83.9185 172.85 81.9852 173.95C80.0852 175.05 77.9352 175.6 75.5352 175.6ZM75.4852 169.9C76.5852 169.9 77.5685 169.633 78.4352 169.1C79.3352 168.567 80.0518 167.767 80.5852 166.7C81.1185 165.6 81.3852 164.233 81.3852 162.6C81.3852 160.967 81.1185 159.617 80.5852 158.55C80.0518 157.45 79.3352 156.633 78.4352 156.1C77.5685 155.567 76.6185 155.3 75.5852 155.3C74.5185 155.3 73.5352 155.567 72.6352 156.1C71.7352 156.633 71.0185 157.45 70.4852 158.55C69.9518 159.617 69.6852 160.967 69.6852 162.6C69.6852 164.233 69.9518 165.6 70.4852 166.7C71.0185 167.767 71.7185 168.567 72.5852 169.1C73.4852 169.633 74.4518 169.9 75.4852 169.9ZM90.2637 175V140H97.0137V175H90.2637ZM100.238 175V140H106.988V175H100.238ZM121.919 175.6C119.385 175.6 117.135 175.067 115.169 174C113.235 172.933 111.719 171.433 110.619 169.5C109.519 167.567 108.969 165.35 108.969 162.85C108.969 160.25 109.502 157.967 110.569 156C111.669 154 113.185 152.433 115.119 151.3C117.085 150.167 119.352 149.6 121.919 149.6C124.419 149.6 126.602 150.133 128.469 151.2C130.335 152.267 131.802 153.733 132.869 155.6C133.935 157.433 134.469 159.517 134.469 161.85C134.469 162.183 134.452 162.567 134.419 163C134.419 163.4 134.402 163.817 134.369 164.25H113.769V160.1H127.619C127.519 158.533 126.935 157.283 125.869 156.35C124.835 155.417 123.535 154.95 121.969 154.95C120.802 154.95 119.735 155.217 118.769 155.75C117.802 156.25 117.035 157.033 116.469 158.1C115.902 159.133 115.619 160.45 115.619 162.05V163.5C115.619 164.867 115.885 166.05 116.419 167.05C116.952 168.017 117.685 168.767 118.619 169.3C119.585 169.833 120.669 170.1 121.869 170.1C123.102 170.1 124.135 169.833 124.969 169.3C125.802 168.733 126.435 168.017 126.869 167.15H133.719C133.252 168.717 132.469 170.15 131.369 171.45C130.269 172.717 128.919 173.733 127.319 174.5C125.719 175.233 123.919 175.6 121.919 175.6ZM146.968 185.6C144.602 185.6 142.518 185.317 140.718 184.75C138.952 184.183 137.568 183.333 136.568 182.2C135.602 181.1 135.118 179.767 135.118 178.2C135.118 177.033 135.418 175.967 136.018 175C136.618 174 137.502 173.1 138.668 172.3C139.835 171.467 141.268 170.75 142.968 170.15L145.418 173.5C143.952 174 142.885 174.6 142.218 175.3C141.552 176 141.218 176.8 141.218 177.7C141.218 178.367 141.452 178.933 141.918 179.4C142.418 179.867 143.102 180.217 143.968 180.45C144.835 180.717 145.835 180.85 146.968 180.85C148.102 180.85 149.052 180.717 149.818 180.45C150.585 180.183 151.168 179.8 151.568 179.3C151.968 178.833 152.168 178.283 152.168 177.65C152.168 176.75 151.852 176.05 151.218 175.55C150.585 175.083 149.352 174.783 147.518 174.65C145.818 174.517 144.318 174.333 143.018 174.1C141.718 173.833 140.568 173.533 139.568 173.2C138.602 172.833 137.768 172.433 137.068 172C136.368 171.567 135.802 171.133 135.368 170.7V169.55L140.718 164.05L144.668 165.55L139.268 171.55L141.068 168.55C141.402 168.683 141.752 168.817 142.118 168.95C142.485 169.083 142.935 169.217 143.468 169.35C144.035 169.483 144.735 169.617 145.568 169.75C146.435 169.85 147.518 169.967 148.818 170.1C151.018 170.267 152.818 170.65 154.218 171.25C155.618 171.85 156.652 172.667 157.318 173.7C157.985 174.733 158.318 176 158.318 177.5C158.318 178.8 157.902 180.067 157.068 181.3C156.268 182.567 155.035 183.6 153.368 184.4C151.702 185.2 149.568 185.6 146.968 185.6ZM147.018 167.65C144.918 167.65 143.102 167.25 141.568 166.45C140.068 165.65 138.902 164.567 138.068 163.2C137.268 161.833 136.868 160.317 136.868 158.65C136.868 156.983 137.268 155.467 138.068 154.1C138.902 152.733 140.068 151.65 141.568 150.85C143.102 150.017 144.918 149.6 147.018 149.6C149.118 149.6 150.918 150.017 152.418 150.85C153.952 151.65 155.118 152.733 155.918 154.1C156.718 155.467 157.118 156.983 157.118 158.65C157.118 160.317 156.718 161.833 155.918 163.2C155.118 164.567 153.952 165.65 152.418 166.45C150.918 167.25 149.118 167.65 147.018 167.65ZM146.968 162.75C148.302 162.75 149.368 162.417 150.168 161.75C151.002 161.05 151.418 160.017 151.418 158.65C151.418 157.283 151.002 156.267 150.168 155.6C149.368 154.9 148.318 154.55 147.018 154.55C145.685 154.55 144.602 154.9 143.768 155.6C142.968 156.267 142.568 157.283 142.568 158.65C142.568 160.017 142.968 161.05 143.768 161.75C144.602 162.417 145.668 162.75 146.968 162.75ZM151.068 154.75L149.968 150.2H160.368V153.85L151.068 154.75ZM174.388 175.6C171.854 175.6 169.604 175.067 167.638 174C165.704 172.933 164.188 171.433 163.088 169.5C161.988 167.567 161.438 165.35 161.438 162.85C161.438 160.25 161.971 157.967 163.038 156C164.138 154 165.654 152.433 167.588 151.3C169.554 150.167 171.821 149.6 174.388 149.6C176.888 149.6 179.071 150.133 180.938 151.2C182.804 152.267 184.271 153.733 185.338 155.6C186.404 157.433 186.938 159.517 186.938 161.85C186.938 162.183 186.921 162.567 186.888 163C186.888 163.4 186.871 163.817 186.838 164.25H166.238V160.1H180.088C179.988 158.533 179.404 157.283 178.338 156.35C177.304 155.417 176.004 154.95 174.438 154.95C173.271 154.95 172.204 155.217 171.238 155.75C170.271 156.25 169.504 157.033 168.938 158.1C168.371 159.133 168.088 160.45 168.088 162.05V163.5C168.088 164.867 168.354 166.05 168.888 167.05C169.421 168.017 170.154 168.767 171.088 169.3C172.054 169.833 173.138 170.1 174.338 170.1C175.571 170.1 176.604 169.833 177.438 169.3C178.271 168.733 178.904 168.017 179.338 167.15H186.188C185.721 168.717 184.938 170.15 183.838 171.45C182.738 172.717 181.388 173.733 179.788 174.5C178.188 175.233 176.388 175.6 174.388 175.6Z" fill="#E1EEE6"/>
<path d="M192.5 176V146.45H182.25V141H209.45V146.45H199.2V176H192.5ZM219.114 176.6C216.581 176.6 214.331 176.067 212.364 175C210.431 173.933 208.914 172.433 207.814 170.5C206.714 168.567 206.164 166.35 206.164 163.85C206.164 161.25 206.697 158.967 207.764 157C208.864 155 210.381 153.433 212.314 152.3C214.281 151.167 216.547 150.6 219.114 150.6C221.614 150.6 223.797 151.133 225.664 152.2C227.531 153.267 228.997 154.733 230.064 156.6C231.131 158.433 231.664 160.517 231.664 162.85C231.664 163.183 231.647 163.567 231.614 164C231.614 164.4 231.597 164.817 231.564 165.25H210.964V161.1H224.814C224.714 159.533 224.131 158.283 223.064 157.35C222.031 156.417 220.731 155.95 219.164 155.95C217.997 155.95 216.931 156.217 215.964 156.75C214.997 157.25 214.231 158.033 213.664 159.1C213.097 160.133 212.814 161.45 212.814 163.05V164.5C212.814 165.867 213.081 167.05 213.614 168.05C214.147 169.017 214.881 169.767 215.814 170.3C216.781 170.833 217.864 171.1 219.064 171.1C220.297 171.1 221.331 170.833 222.164 170.3C222.997 169.733 223.631 169.017 224.064 168.15H230.914C230.447 169.717 229.664 171.15 228.564 172.45C227.464 173.717 226.114 174.733 224.514 175.5C222.914 176.233 221.114 176.6 219.114 176.6ZM245.448 176.6C242.815 176.6 240.515 176.05 238.548 174.95C236.615 173.817 235.098 172.283 233.998 170.35C232.932 168.383 232.398 166.133 232.398 163.6C232.398 161.067 232.948 158.833 234.048 156.9C235.148 154.933 236.682 153.4 238.648 152.3C240.615 151.167 242.882 150.6 245.448 150.6C248.648 150.6 251.332 151.433 253.498 153.1C255.698 154.767 257.098 157.067 257.698 160H250.548C250.282 158.8 249.665 157.867 248.698 157.2C247.765 156.533 246.665 156.2 245.398 156.2C244.232 156.2 243.182 156.5 242.248 157.1C241.348 157.667 240.632 158.5 240.098 159.6C239.565 160.7 239.298 162.033 239.298 163.6C239.298 164.733 239.448 165.75 239.748 166.65C240.048 167.55 240.465 168.317 240.998 168.95C241.532 169.583 242.165 170.067 242.898 170.4C243.665 170.7 244.498 170.85 245.398 170.85C246.265 170.85 247.048 170.717 247.748 170.45C248.448 170.15 249.048 169.733 249.548 169.2C250.048 168.633 250.382 167.967 250.548 167.2H257.698C257.098 170.067 255.698 172.35 253.498 174.05C251.332 175.75 248.648 176.6 245.448 176.6ZM259.682 176V141H266.332V155.35H266.532C267.398 153.817 268.532 152.65 269.932 151.85C271.332 151.017 272.982 150.6 274.882 150.6C276.882 150.6 278.582 151.05 279.982 151.95C281.382 152.817 282.448 154.1 283.182 155.8C283.915 157.5 284.282 159.6 284.282 162.1V176H277.582V162.7C277.582 160.633 277.165 159.05 276.332 157.95C275.532 156.85 274.232 156.3 272.432 156.3C271.265 156.3 270.232 156.583 269.332 157.15C268.432 157.683 267.715 158.467 267.182 159.5C266.682 160.5 266.432 161.733 266.432 163.2V176H259.682Z" fill="#E1EEE6"/>
<path d="M258.792 190.06C258.592 190.06 258.428 189.996 258.3 189.868C258.172 189.732 258.108 189.568 258.108 189.376C258.108 189.184 258.172 189.024 258.3 188.896C258.428 188.76 258.592 188.692 258.792 188.692C258.992 188.692 259.156 188.76 259.284 188.896C259.412 189.024 259.476 189.184 259.476 189.376C259.476 189.568 259.412 189.732 259.284 189.868C259.156 189.996 258.992 190.06 258.792 190.06ZM263.221 190.144C262.685 190.144 262.221 190.02 261.829 189.772C261.445 189.524 261.157 189.18 260.965 188.74C260.781 188.292 260.721 187.776 260.785 187.192C260.833 186.68 260.957 186.212 261.157 185.788C261.357 185.356 261.617 184.988 261.937 184.684C262.265 184.372 262.633 184.132 263.041 183.964C263.449 183.788 263.885 183.7 264.349 183.7C265.069 183.7 265.637 183.892 266.053 184.276C266.477 184.66 266.697 185.172 266.713 185.812H265.681C265.665 185.412 265.517 185.104 265.237 184.888C264.957 184.672 264.609 184.564 264.193 184.564C263.793 184.564 263.421 184.668 263.077 184.876C262.741 185.084 262.461 185.38 262.237 185.764C262.013 186.148 261.873 186.608 261.817 187.144C261.777 187.488 261.785 187.796 261.841 188.068C261.905 188.34 262.009 188.568 262.153 188.752C262.297 188.928 262.469 189.064 262.669 189.16C262.877 189.248 263.109 189.292 263.365 189.292C263.645 189.292 263.909 189.244 264.157 189.148C264.413 189.052 264.637 188.912 264.829 188.728C265.029 188.536 265.181 188.304 265.285 188.032H266.317C266.165 188.448 265.937 188.816 265.633 189.136C265.329 189.448 264.969 189.696 264.553 189.88C264.145 190.056 263.701 190.144 263.221 190.144ZM269.908 190.144C269.364 190.144 268.892 190.02 268.492 189.772C268.1 189.516 267.812 189.164 267.628 188.716C267.444 188.268 267.384 187.752 267.448 187.168C267.496 186.656 267.62 186.188 267.82 185.764C268.02 185.34 268.28 184.976 268.6 184.672C268.92 184.368 269.284 184.132 269.692 183.964C270.1 183.788 270.532 183.7 270.988 183.7C271.54 183.7 272.012 183.824 272.404 184.072C272.796 184.32 273.084 184.668 273.268 185.116C273.46 185.556 273.52 186.076 273.448 186.676C273.4 187.188 273.276 187.656 273.076 188.08C272.884 188.496 272.628 188.86 272.308 189.172C271.988 189.476 271.624 189.716 271.216 189.892C270.808 190.06 270.372 190.144 269.908 190.144ZM270.04 189.28C270.448 189.28 270.82 189.176 271.156 188.968C271.5 188.76 271.784 188.464 272.008 188.08C272.232 187.688 272.368 187.228 272.416 186.7C272.472 186.236 272.436 185.848 272.308 185.536C272.18 185.216 271.988 184.976 271.732 184.816C271.484 184.648 271.192 184.564 270.856 184.564C270.456 184.564 270.088 184.668 269.752 184.876C269.416 185.084 269.132 185.384 268.9 185.776C268.676 186.16 268.54 186.616 268.492 187.144C268.436 187.608 268.472 188 268.6 188.32C268.728 188.632 268.916 188.872 269.164 189.04C269.42 189.2 269.712 189.28 270.04 189.28ZM274.092 190L275.172 183.844H276.084L275.988 184.768C276.228 184.44 276.524 184.18 276.876 183.988C277.228 183.796 277.592 183.7 277.968 183.7C278.272 183.7 278.54 183.744 278.772 183.832C279.012 183.92 279.212 184.052 279.372 184.228C279.532 184.396 279.648 184.612 279.72 184.876C279.984 184.5 280.312 184.212 280.704 184.012C281.096 183.804 281.496 183.7 281.904 183.7C282.352 183.7 282.728 183.792 283.032 183.976C283.344 184.16 283.564 184.44 283.692 184.816C283.82 185.192 283.832 185.664 283.728 186.232L283.068 190H282.072L282.708 186.34C282.812 185.748 282.764 185.304 282.564 185.008C282.372 184.712 282.06 184.564 281.628 184.564C281.348 184.564 281.076 184.64 280.812 184.792C280.556 184.944 280.328 185.164 280.128 185.452C279.936 185.732 279.796 186.08 279.708 186.496L279.084 190H278.076L278.724 186.34C278.828 185.748 278.78 185.304 278.58 185.008C278.38 184.712 278.068 184.564 277.644 184.564C277.364 184.564 277.088 184.644 276.816 184.804C276.552 184.964 276.32 185.2 276.12 185.512C275.92 185.816 275.78 186.188 275.7 186.628L275.1 190H274.092Z" fill="#00CE93"/>
</svg>
